
o floor
vn 0.000000 1.000000 -0.000796
v -5.494022 -2.976466 5.612802
vn 0.000000 1.000000 -0.000796
v 5.561978 -2.976466 5.612802
vn 0.000000 1.000000 -0.000796
v 5.561978 -2.985372 -5.571196
vn 0.000000 1.000000 -0.000796
v -5.430022 -2.985372 -5.571196
usemtl White
s flat
f 2//2 4//4 1//1
f 2//2 3//3 4//4

o bunny_low
vn -0.833762 0.346127 -0.430160
v 0.206626 -1.912794 -0.441519
vn -0.539275 0.532837 -0.652125
v 0.580101 -1.762181 -0.733235
vn -0.571234 0.414856 -0.708227
v 0.199589 -1.935514 -0.735011
vn 0.812658 -0.367492 0.452257
v 1.579876 -2.863635 0.243327
vn 0.874541 -0.306793 0.375576
v 1.657389 -2.744303 -0.013422
vn 0.877197 -0.341927 0.337063
v 1.747235 -2.546899 0.081298
vn -0.495632 0.841414 -0.215340
v 0.090693 -0.026830 -0.631705
vn -0.901338 0.391772 0.184673
v 0.058243 -0.179481 -0.359504
vn 0.256718 0.893660 0.368060
v 0.349168 -0.047415 -0.311385
vn 0.857037 0.493161 0.149266
v 0.618695 -1.332391 0.569614
vn 0.574605 0.430082 0.696317
v 0.787473 -1.696901 0.797982
vn 0.213138 0.836102 0.505476
v 0.930462 -1.355837 0.363473
vn -0.885477 -0.306438 -0.349323
v 0.123876 -2.275415 -0.203081
vn -0.797753 0.135741 -0.587507
v -0.286938 -1.800851 -0.006607
vn -0.371476 0.330834 -0.867499
v 0.741341 -1.962390 -0.985125
vn -0.176698 -0.053843 -0.982791
v 0.946731 -2.186248 -1.064910
vn 0.007430 -0.713468 0.700649
v 0.095965 -1.551205 1.362470
vn -0.319358 -0.122703 0.939656
v 0.071475 -1.366071 1.464077
vn -0.690997 -0.398241 0.603264
v -0.288605 -1.480108 1.097519
vn -0.059552 -0.360394 -0.930897
v 0.966029 -2.537696 -1.012480
vn -0.068778 -0.030213 -0.997174
v 1.503328 -2.454825 -0.907740
vn -0.028730 -0.535042 -0.844337
v 1.251335 -2.789470 -0.817533
vn -0.931198 0.207037 -0.300009
v -0.699335 -0.159343 -0.528547
vn -0.249749 -0.212656 -0.944671
v -0.528136 -0.452388 -0.747396
vn -0.975796 -0.208854 -0.064821
v -0.716509 -0.630114 -0.463057
vn -0.139819 -0.522236 -0.841261
v 0.861709 -2.755390 -0.855440
vn -0.406788 -0.285963 -0.867611
v 0.559128 -2.334260 -0.903506
vn -0.171288 -0.387856 0.905665
v 0.543022 -2.597608 0.753378
vn -0.370002 0.534503 0.759872
v 0.409585 -2.866183 0.514344
vn -0.110079 0.532779 0.839065
v 0.632081 -2.721504 0.843824
vn -0.536457 -0.552917 -0.637571
v 0.361411 -2.683641 -0.646074
vn -0.912949 -0.201612 -0.354792
v 0.041987 -2.245357 -0.580153
vn -0.001158 0.713872 0.700275
v 0.111369 -2.820571 0.682663
vn -0.063149 -0.422418 0.904199
v 0.244048 -3.004058 0.761996
vn -0.953955 0.298454 0.029920
v 0.083837 -2.737711 0.175557
vn -0.870048 -0.102363 -0.482222
v 0.290141 -2.731216 -0.461555
vn -0.977005 0.174533 -0.122469
v -0.079259 -2.903936 -0.108308
vn 0.015945 -0.108393 -0.993980
v -0.108489 -0.957472 0.202769
vn -0.251069 -0.209260 -0.945079
v 0.046429 -0.929561 0.167043
vn -0.441756 0.531335 -0.722865
v 0.012318 -1.246945 0.067519
vn 0.291101 0.716931 -0.633459
v 1.821875 -2.269856 -0.938546
vn 0.981391 0.152798 -0.116299
v 2.051800 -2.436134 -0.669929
vn 0.570052 -0.249257 -0.782886
v 1.866802 -2.503494 -0.942180
vn 0.004063 0.859674 -0.510827
v -0.486820 -0.024625 -0.623993
vn 0.450021 -0.693254 -0.562920
v -0.319903 -0.857295 0.049254
vn 0.783894 0.281334 -0.553499
v -0.187561 -0.673024 0.123708
vn -0.809137 0.048422 0.585622
v -0.331190 -1.268831 1.107292
vn -0.978569 -0.179591 0.100749
v -0.464483 -1.407280 0.703982
vn 0.911384 0.410147 -0.034044
v 0.280590 -0.658068 0.372136
vn 0.973508 0.120992 0.194020
v 0.395932 -0.461465 0.007457
vn 0.426685 0.775223 0.465800
v 0.198021 -0.570751 0.420994
vn 0.473654 -0.139273 0.869629
v 1.118103 -2.949293 0.837364
vn 0.615308 -0.134206 0.776779
v 1.300222 -2.722511 0.564646
vn 0.198395 0.129312 0.971554
v 0.938791 -2.670735 0.737658
vn -0.832122 -0.473089 -0.289414
v 0.163017 -0.523607 -0.472377
vn 0.127104 -0.707512 -0.695178
v 0.324347 -0.556093 -0.604135
vn -0.236428 0.539710 -0.807970
v 0.929766 -1.372469 -0.896734
vn -0.153433 0.250931 -0.955768
v 1.153904 -1.718139 -1.026900
vn -0.508568 0.300132 -0.807019
v 0.876207 -1.654629 -0.894953
vn 0.947625 -0.017554 -0.318902
v 1.913281 -2.037899 -0.617854
vn 0.934464 -0.228532 0.273040
v 1.833658 -2.675285 -0.191402
vn 0.902291 0.423961 0.078282
v 1.879667 -2.306714 -0.575862
vn 0.671169 0.421081 -0.610101
v 0.289268 -0.072798 -0.711202
vn -0.213733 0.154751 -0.964557
v 0.092697 -0.211980 -0.796502
vn 0.871963 0.307068 0.381299
v 1.778635 -1.751407 0.112053
vn 0.954690 0.288494 -0.073058
v 1.917881 -1.719092 -0.404565
vn 0.801506 0.512294 0.308452
v 1.783679 -1.478081 -0.168725
vn 0.509970 0.371119 -0.776016
v 1.539084 -1.619001 -0.952028
vn 0.511499 0.349332 -0.785071
v 1.703661 -2.267044 -0.838620
vn -0.625594 -0.078021 0.776237
v -0.221900 -1.859951 1.083875
vn -0.088935 -0.040750 0.995204
v 0.071008 -2.004064 1.184606
vn -0.309703 -0.352234 0.883185
v 0.040161 -1.617423 1.141008
vn 0.063090 0.997711 0.024332
v 1.168729 -1.059752 -0.246430
vn 0.267747 0.837031 -0.477170
v 1.371858 -1.220206 -0.633246
vn -0.237389 0.904941 -0.353170
v 0.968086 -1.143537 -0.527356
vn -0.810816 -0.361325 0.460458
v -0.339112 -2.142436 0.792642
vn -0.309604 -0.801656 0.511363
v 0.156179 -2.487906 0.936492
vn -0.136618 -0.465878 0.874238
v 0.213613 -2.285222 1.110695
vn 0.884318 -0.176475 -0.432249
v 0.248935 -0.884287 0.230989
vn 0.437519 0.752990 -0.491511
v 0.403762 -1.163688 0.240583
vn -0.988825 -0.119537 0.089085
v -0.362902 -0.849222 0.415867
vn -0.391442 -0.863867 -0.317030
v -0.623836 -0.813088 -0.304471
vn -0.916319 -0.166005 0.364421
v -0.298272 -1.634560 0.883803
vn -0.929851 0.034738 -0.366293
v -0.326040 -1.521199 0.388549
vn -0.995595 -0.070382 -0.061950
v -0.444850 -1.902738 0.376982
vn -0.578310 -0.489402 -0.652720
v -0.295092 -0.984764 0.305665
vn -0.286856 0.924272 0.251864
v -0.691126 -0.088575 -0.264994
vn -0.143098 0.977668 0.153912
v -0.115383 -0.641679 0.486050
vn -0.450932 0.789991 0.415420
v 0.091959 -0.368759 0.211704
vn 0.076113 0.987600 0.137305
v 0.075319 -0.546100 0.740522
vn -0.622012 0.422910 -0.658975
v -0.040068 -0.632124 0.209059
vn -0.618867 0.678331 0.396068
v -0.308087 -0.750571 1.040194
vn 0.055625 0.831851 0.552204
v 0.054786 -0.694276 1.109370
vn -0.355478 0.346519 0.868078
v 0.087855 -1.003809 1.374247
vn -0.939772 0.126478 0.317539
v -0.354560 -0.978835 0.905254
vn 0.233126 -0.014949 -0.972332
v 1.320043 -1.998808 -1.093923
vn 0.754938 0.643746 0.125138
v 0.452390 -0.690590 0.809774
vn 0.657476 0.538980 0.526522
v 0.404521 -0.842486 1.170554
vn -0.710951 -0.694668 0.109474
v -0.177956 -2.455975 0.618775
vn 0.302676 -0.087087 0.949106
v 0.923316 -2.347173 0.783137
vn -0.700942 -0.711618 0.047750
v 0.069303 -3.003475 0.219476
vn -0.039994 -0.542934 -0.838823
v 0.821838 -3.001338 -0.832165
vn 0.092041 -0.907664 -0.409480
v 1.084001 -3.000660 -0.573592
vn -0.330046 -0.897295 -0.293141
v 0.075531 -3.002450 -0.304259
vn 0.398568 0.856759 0.327272
v 1.397956 -1.148943 0.017031
vn 0.412777 0.608602 0.677657
v 1.446472 -1.362453 0.274903
vn -0.296887 -0.718860 0.628569
v 0.320394 -3.000669 1.073884
vn -0.934458 0.051675 0.352303
v -0.736937 -0.275553 -0.061647
vn -0.539321 0.487731 -0.686478
v 0.315774 -1.495504 -0.466873
vn -0.774302 -0.632752 -0.009050
v 0.038505 -2.550845 0.293404
vn 0.645795 -0.122053 0.753692
v 0.390617 -1.613525 1.075714
vn 0.401793 0.060041 0.913760
v 0.564142 -1.909611 1.130662
vn 0.622194 -0.693607 -0.363021
v 1.794499 -3.003308 -0.627343
vn 0.695939 -0.658288 0.286924
v 1.827240 -3.001780 -0.315217
vn -0.921994 -0.022206 0.386567
v -0.135184 -2.938038 0.578287
vn 0.673908 0.712648 -0.194885
v 1.719484 -1.357429 -0.442250
vn 0.835709 -0.131330 0.533238
v 1.652683 -2.303902 0.474744
vn 0.966959 -0.041602 0.251515
v 1.905324 -2.111588 -0.065059
vn 0.865893 0.134925 0.481688
v 1.751541 -1.984097 0.318475
vn 0.276682 0.290684 0.915942
v 1.325839 -1.986968 0.736736
vn 0.497215 -0.198016 0.844729
v 1.423787 -2.396820 0.698885
vn 0.704811 0.293701 0.645741
v 1.567466 -1.866155 0.515823
vn -0.208417 0.961917 -0.176858
v 0.547309 -1.241601 -0.101227
vn -0.841895 0.408895 0.352161
v -0.351708 -0.708207 0.514281
vn 0.471797 0.209085 0.856558
v 0.609094 -2.926784 1.055210
vn -0.879558 -0.102886 0.464534
v -0.547758 -0.525840 0.119038
vn 0.349783 0.089083 0.932586
v 0.361831 -1.181079 1.430783
vn 0.615704 -0.553512 -0.560832
v -0.376046 -0.549416 -0.641500
vn -0.647091 0.497016 -0.578143
v 0.034921 -1.415706 -0.147586
vn -0.551512 0.641447 -0.533273
v 0.628476 -1.379802 -0.584495
vn 0.844259 0.274192 -0.460484
v -0.296370 -0.254818 -0.630782
vn 0.977149 0.211472 -0.021444
v 0.438306 -0.920552 0.729501
vn 0.897731 -0.173294 0.405028
v 0.552261 -1.405446 1.280822
vn 0.993447 -0.096621 0.061057
v 0.538544 -1.344317 0.979586
vn -0.092422 -0.800427 -0.592263
v 1.494017 -3.002921 -0.774367
vn 0.236513 0.433949 0.869339
v 1.083543 -1.819571 0.658438
vn 0.329546 -0.391376 0.859200
v 0.535670 -2.152003 1.091682
vn -0.529683 -0.258159 -0.807955
v 0.282866 -2.243369 -0.836929
vn -0.137170 -0.022436 -0.990293
v 1.631558 -2.545591 -1.010253
vn -0.889576 -0.258202 -0.376811
v -0.011008 -0.271876 -0.691133
vn 0.618604 -0.678102 0.396872
v 1.544837 -3.002440 0.219317
vn -0.767835 -0.507644 -0.390803
v -0.286833 -2.248758 0.130143
vn 0.366011 -0.499752 0.785037
v 0.802945 -3.002487 0.804131
vn -0.604143 0.384030 0.698234
v 0.260209 -2.765225 0.508017
vn -0.954107 -0.222823 0.200074
v -0.609803 -0.536590 -0.238254
vn 0.713003 0.673005 0.196698
v -0.360345 -0.330097 -0.277072
vn -0.132955 0.749654 0.648338
v -0.447417 -0.362882 0.137231
vn 0.958339 -0.215687 -0.187257
v 0.406788 -0.504296 -0.488963
usemtl Red
s phong
f 5//5 6//6 7//7
f 8//8 9//9 10//10
f 11//11 12//12 13//13
f 14//14 15//15 16//16
f 5//5 17//17 18//18
f 19//19 20//20 7//7
f 21//21 22//22 23//23
f 24//24 25//25 26//26
f 27//27 28//28 29//29
f 30//30 31//31 24//24
f 32//32 33//33 34//34
f 31//31 35//35 36//36
f 37//37 38//38 33//33
f 39//39 40//40 41//41
f 42//42 43//43 44//44
f 45//45 46//46 47//47
f 48//48 28//28 27//27
f 42//42 49//49 50//50
f 51//51 52//52 23//23
f 53//53 54//54 55//55
f 56//56 57//57 58//58
f 59//59 60//60 43//43
f 61//61 62//62 63//63
f 64//64 65//65 66//66
f 67//67 60//60 68//68
f 66//66 46//46 45//45
f 69//69 70//70 71//71
f 72//72 64//64 73//73
f 74//74 75//75 76//76
f 77//77 78//78 79//79
f 80//80 81//81 82//82
f 61//61 72//72 62//62
f 83//83 84//84 43//43
f 85//85 29//29 86//86
f 87//87 52//52 88//88
f 18//18 89//89 88//88
f 49//49 42//42 90//90
f 91//91 48//48 27//27
f 92//92 55//55 93//93
f 94//94 55//55 92//92
f 50//50 92//92 95//95
f 96//96 97//97 94//94
f 51//51 98//98 99//99
f 72//72 73//73 100//100
f 101//101 97//97 102//102
f 24//24 26//26 30//30
f 80//80 89//89 103//103
f 44//44 18//18 88//88
f 104//104 32//32 58//58
f 105//105 39//39 41//41
f 106//106 107//107 108//108
f 87//87 80//80 74//74
f 79//79 78//78 61//61
f 102//102 97//97 98//98
f 109//109 77//77 16//16
f 95//95 42//42 50//50
f 110//110 71//71 109//109
f 108//108 107//107 111//111
f 27//27 112//112 91//91
f 113//113 6//6 5//5
f 17//17 40//40 114//114
f 115//115 75//75 116//116
f 95//95 59//59 43//43
f 117//117 46//46 118//118
f 72//72 61//61 78//78
f 63//63 62//62 19//19
f 119//119 105//105 38//38
f 108//108 41//41 40//40
f 106//106 30//30 107//107
f 110//110 109//109 16//16
f 72//72 78//78 120//120
f 121//121 122//122 123//123
f 124//124 125//125 126//126
f 7//7 36//36 5//5
f 87//87 89//89 80//80
f 40//40 36//36 35//35
f 127//127 77//77 79//79
f 74//74 76//76 87//87
f 36//36 40//40 17//17
f 11//11 67//67 68//68
f 41//41 108//108 105//105
f 128//128 99//99 96//96
f 129//129 34//34 111//111
f 130//130 85//85 128//128
f 22//22 98//98 23//23
f 115//115 15//15 14//14
f 55//55 13//13 93//93
f 98//98 131//131 102//102
f 19//19 7//7 6//6
f 90//90 42//42 44//44
f 38//38 37//37 119//119
f 50//50 49//49 132//132
f 44//44 133//133 18//18
f 111//111 33//33 38//38
f 134//134 127//127 79//79
f 132//132 135//135 50//50
f 136//136 137//137 138//138
f 83//83 14//14 84//84
f 128//128 85//85 99//99
f 136//136 14//14 53//53
f 125//125 8//8 121//121
f 52//52 87//87 23//23
f 72//72 100//100 62//62
f 118//118 111//111 139//139
f 107//107 26//26 139//139
f 70//70 122//122 64//64
f 15//15 115//115 116//116
f 18//18 113//113 5//5
f 16//16 140//140 110//110
f 141//141 32//32 104//104
f 12//12 59//59 95//95
f 142//142 36//36 7//7
f 28//28 86//86 29//29
f 48//48 135//135 28//28
f 128//128 96//96 92//92
f 45//45 143//143 25//25
f 93//93 12//12 95//95
f 69//69 71//71 126//126
f 98//98 22//22 131//131
f 10//10 65//65 122//122
f 136//136 138//138 14//14
f 71//71 110//110 126//126
f 60//60 59//59 144//144
f 113//113 127//127 134//134
f 110//110 140//140 124//124
f 38//38 108//108 111//111
f 85//85 52//52 99//99
f 141//141 116//116 82//82
f 53//53 14//14 83//83
f 66//66 45//45 73//73
f 45//45 47//47 143//143
f 140//140 104//104 124//124
f 127//127 113//113 44//44
f 145//145 111//111 118//118
f 146//146 17//17 114//114
f 104//104 140//140 15//15
f 105//105 119//119 39//39
f 118//118 46//46 66//66
f 142//142 31//31 36//36
f 12//12 93//93 13//13
f 67//67 11//11 13//13
f 90//90 88//88 85//85
f 21//21 137//137 131//131
f 11//11 68//68 144//144
f 125//125 124//124 104//104
f 136//136 102//102 137//137
f 93//93 95//95 92//92
f 100//100 73//73 25//25
f 54//54 13//13 55//55
f 25//25 73//73 45//45
f 30//30 106//106 40//40
f 147//147 58//58 34//34
f 46//46 117//117 47//47
f 32//32 148//148 33//33
f 77//77 127//127 16//16
f 56//56 147//147 145//145
f 107//107 139//139 111//111
f 96//96 99//99 98//98
f 5//5 36//36 17//17
f 112//112 27//27 149//149
f 96//96 94//94 92//92
f 15//15 140//140 16//16
f 113//113 63//63 6//6
f 150//150 48//48 91//91
f 145//145 8//8 57//57
f 58//58 32//32 34//34
f 119//119 37//37 148//148
f 102//102 136//136 101//101
f 20//20 24//24 31//31
f 126//126 121//121 123//123
f 110//110 124//124 126//126
f 61//61 63//63 134//134
f 146//146 103//103 89//89
f 56//56 145//145 57//57
f 136//136 53//53 101//101
f 112//112 149//149 130//130
f 105//105 108//108 38//38
f 120//120 71//71 70//70
f 141//141 104//104 116//116
f 114//114 39//39 148//148
f 9//9 145//145 118//118
f 39//39 114//114 40//40
f 10//10 9//9 65//65
f 44//44 84//84 127//127
f 120//120 77//77 109//109
f 34//34 129//129 147//147
f 20//20 19//19 62//62
f 74//74 82//82 75//75
f 115//115 14//14 138//138
f 77//77 120//120 78//78
f 90//90 44//44 88//88
f 64//64 66//66 73//73
f 76//76 75//75 115//115
f 18//18 146//146 89//89
f 135//135 132//132 28//28
f 104//104 15//15 116//116
f 25//25 20//20 100//100
f 86//86 90//90 85//85
f 80//80 103//103 81//81
f 74//74 80//80 82//82
f 150//150 135//135 48//48
f 53//53 94//94 101//101
f 49//49 90//90 86//86
f 25//25 24//24 20//20
f 149//149 29//29 85//85
f 120//120 70//70 72//72
f 33//33 111//111 34//34
f 35//35 30//30 40//40
f 71//71 120//120 109//109
f 115//115 138//138 137//137
f 88//88 89//89 87//87
f 103//103 146//146 114//114
f 144//144 68//68 60//60
f 54//54 67//67 13//13
f 151//151 130//130 128//128
f 143//143 139//139 25//25
f 82//82 81//81 32//32
f 58//58 147//147 56//56
f 118//118 66//66 65//65
f 53//53 83//83 54//54
f 112//112 130//130 151//151
f 60//60 83//83 43//43
f 117//117 118//118 139//139
f 126//126 125//125 121//121
f 76//76 23//23 87//87
f 129//129 111//111 147//147
f 27//27 29//29 149//149
f 86//86 132//132 49//49
f 33//33 148//148 37//37
f 30//30 26//26 107//107
f 143//143 47//47 139//139
f 103//103 114//114 81//81
f 64//64 122//122 65//65
f 151//151 128//128 92//92
f 127//127 84//84 16//16
f 58//58 57//57 125//125
f 146//146 18//18 17//17
f 134//134 63//63 113//113
f 79//79 61//61 134//134
f 7//7 31//31 142//142
f 59//59 12//12 144//144
f 119//119 148//148 39//39
f 132//132 86//86 28//28
f 125//125 104//104 58//58
f 96//96 98//98 97//97
f 22//22 21//21 131//131
f 69//69 126//126 123//123
f 20//20 62//62 100//100
f 149//149 85//85 130//130
f 122//122 121//121 10//10
f 54//54 83//83 152//152
f 92//92 50//50 150//150
f 84//84 14//14 16//16
f 152//152 67//67 54//54
f 25//25 139//139 26//26
f 98//98 51//51 23//23
f 114//114 32//32 81//81
f 70//70 64//64 72//72
f 151//151 91//91 112//112
f 50//50 135//135 150//150
f 115//115 21//21 76//76
f 31//31 30//30 35//35
f 125//125 57//57 8//8
f 94//94 97//97 101//101
f 82//82 32//32 141//141
f 69//69 122//122 70//70
f 21//21 23//23 76//76
f 69//69 123//123 122//122
f 47//47 117//117 139//139
f 85//85 88//88 52//52
f 20//20 31//31 7//7
f 113//113 18//18 133//133
f 55//55 94//94 53//53
f 115//115 137//137 21//21
f 148//148 32//32 114//114
f 133//133 44//44 113//113
f 40//40 106//106 108//108
f 95//95 43//43 42//42
f 99//99 52//52 51//51
f 8//8 145//145 9//9
f 75//75 82//82 116//116
f 137//137 102//102 131//131
f 151//151 92//92 150//150
f 147//147 111//111 145//145
f 63//63 19//19 6//6
f 8//8 10//10 121//121
f 151//151 150//150 91//91
f 144//144 12//12 11//11
f 9//9 118//118 65//65
f 43//43 84//84 44//44
f 152//152 83//83 60//60
f 67//67 152//152 60//60
